<?xml version="1.0" encoding="utf-8"?>
<!-- Generator: Adobe Illustrator 19.2.1, SVG Export Plug-In . SVG Version: 6.00 Build 0)  -->
<svg version="1.1" id="Layer_1" xmlns="http://www.w3.org/2000/svg" xmlns:xlink="http://www.w3.org/1999/xlink" x="0px" y="0px"
	 viewBox="0 0 90.05 73.26" style="enable-background:new 0 0 90.05 73.26;" xml:space="preserve">
<style type="text/css">
	.st0{fill:none;stroke:#FFFFFF;stroke-width:3;stroke-miterlimit:10;}
	.st1{fill:#FFFFFF;}
</style>
<g>
	<g>
		<circle class="st0" cx="44.79" cy="27.5" r="26"/>
	</g>
	<g>
		<path class="st1" d="M1.11,70.5H0v-9.9h1.11v3.86c0.51-0.78,1.23-1.18,2.14-1.18c0.91,0,1.65,0.34,2.22,1.03
			c0.57,0.69,0.85,1.56,0.85,2.61s-0.27,1.93-0.8,2.63c-0.54,0.7-1.28,1.05-2.23,1.05c-0.95,0-1.67-0.39-2.18-1.16V70.5z M3.19,64.3
			c-0.55,0-1.03,0.21-1.45,0.63c-0.42,0.42-0.63,1.09-0.63,2.01c0,0.92,0.2,1.59,0.61,2.02c0.41,0.43,0.9,0.64,1.47,0.64
			s1.05-0.24,1.42-0.71c0.37-0.48,0.56-1.12,0.56-1.95s-0.19-1.47-0.58-1.94C4.2,64.53,3.73,64.3,3.19,64.3z"/>
		<path class="st1" d="M9.79,70.57c-0.66,0-1.2-0.2-1.6-0.59c-0.41-0.39-0.61-0.91-0.61-1.55c0-0.64,0.26-1.15,0.78-1.53
			s1.23-0.57,2.12-0.57h1.29v-0.36c0-0.56-0.13-0.98-0.38-1.27c-0.25-0.28-0.72-0.43-1.39-0.43c-0.68,0-1.31,0.2-1.9,0.6v-1.11
			c0.53-0.33,1.23-0.49,2.1-0.49c1.78,0,2.67,0.91,2.67,2.72v4.49h-1.09v-0.84C11.41,70.27,10.75,70.57,9.79,70.57z M8.74,68.46
			c0,0.35,0.12,0.64,0.35,0.86c0.23,0.22,0.59,0.33,1.06,0.33s0.86-0.14,1.16-0.43c0.3-0.28,0.45-0.65,0.45-1.08v-0.91h-1.23
			c-0.6,0-1.05,0.12-1.34,0.35C8.89,67.81,8.74,68.1,8.74,68.46z"/>
		<path class="st1" d="M18.06,70.65c-1.12,0-2.01-0.36-2.67-1.07c-0.66-0.71-0.99-1.58-0.99-2.6c0-1.02,0.33-1.89,0.99-2.62
			c0.66-0.73,1.56-1.09,2.7-1.09c0.61,0,1.15,0.13,1.62,0.39v1.05c-0.43-0.29-0.93-0.43-1.51-0.43c-0.8,0-1.44,0.26-1.92,0.78
			c-0.48,0.52-0.72,1.16-0.71,1.93c0,0.76,0.24,1.4,0.69,1.91c0.46,0.51,1.11,0.76,1.95,0.76c0.54,0,1.05-0.15,1.51-0.46v1.05
			C19.26,70.52,18.71,70.65,18.06,70.65z"/>
		<path class="st1" d="M22.51,70.5h-1.09v-9.84h1.09V70.5z M23.95,66.78l2.88,3.72h-1.33l-2.86-3.72l2.79-3.37h1.32L23.95,66.78z"/>
		<path class="st1" d="M33.82,70.57c-1.4,0-2.1-0.71-2.1-2.14V64.3h-1.13v-0.9h1.13v-1.76h1.11v1.76h1.96v0.9h-1.96v4.16
			c0,0.76,0.35,1.13,1.06,1.13c0.36,0,0.69-0.11,0.97-0.32v1.05C34.55,70.49,34.21,70.57,33.82,70.57z"/>
		<path class="st1" d="M39.42,63.3c1.03,0,1.83,0.35,2.42,1.04c0.58,0.69,0.88,1.57,0.88,2.62c0,1.06-0.3,1.93-0.9,2.62
			c-0.6,0.69-1.41,1.04-2.44,1.04s-1.84-0.34-2.44-1.03c-0.59-0.69-0.89-1.55-0.89-2.6s0.31-1.93,0.92-2.63
			C37.58,63.66,38.4,63.3,39.42,63.3z M39.41,64.28c-0.71,0-1.26,0.26-1.64,0.78c-0.38,0.52-0.57,1.16-0.57,1.9
			c0,0.75,0.2,1.38,0.59,1.9c0.39,0.52,0.93,0.78,1.61,0.78c0.68,0,1.21-0.25,1.6-0.76s0.57-1.15,0.57-1.92
			c0-0.77-0.18-1.41-0.55-1.92C40.66,64.54,40.12,64.28,39.41,64.28z"/>
		<path class="st1" d="M50.02,70.57c-1.4,0-2.1-0.71-2.1-2.14V64.3h-1.13v-0.9h1.13v-1.76h1.11v1.76h1.96v0.9h-1.96v4.16
			c0,0.76,0.35,1.13,1.06,1.13c0.36,0,0.69-0.11,0.97-0.32v1.05C50.75,70.49,50.4,70.57,50.02,70.57z"/>
		<path class="st1" d="M58.27,70.5h-1.11v-4.59c0-0.51-0.13-0.91-0.4-1.19c-0.27-0.28-0.64-0.42-1.11-0.42c-0.48,0-0.91,0.2-1.3,0.6
			c-0.39,0.4-0.59,0.97-0.59,1.72v3.88h-1.09v-9.9h1.09v4.03c0.42-0.89,1.17-1.33,2.24-1.33c0.68,0,1.23,0.21,1.64,0.63
			s0.62,0.99,0.62,1.71V70.5z"/>
		<path class="st1" d="M63.39,70.57c-1.07,0-1.94-0.33-2.6-0.99s-0.99-1.54-0.99-2.65c0-1.11,0.29-1.99,0.88-2.64
			s1.33-0.98,2.24-0.98s1.62,0.28,2.14,0.85s0.79,1.38,0.79,2.42c0,0.3-0.02,0.57-0.07,0.83h-4.84c0.08,0.7,0.35,1.24,0.8,1.61
			c0.45,0.37,1.05,0.56,1.81,0.56s1.38-0.16,1.85-0.49v1.04C64.86,70.43,64.18,70.57,63.39,70.57z M64.27,64.81
			c-0.32-0.35-0.75-0.52-1.3-0.52s-1.01,0.19-1.38,0.57s-0.59,0.93-0.66,1.64h3.81v-0.28C64.75,65.63,64.59,65.16,64.27,64.81z"/>
		<path class="st1" d="M73.22,70.57c-1.4,0-2.1-0.71-2.1-2.14V64.3h-1.13v-0.9h1.13v-1.76h1.11v1.76h1.96v0.9h-1.96v4.16
			c0,0.76,0.35,1.13,1.06,1.13c0.36,0,0.69-0.11,0.97-0.32v1.05C73.95,70.49,73.6,70.57,73.22,70.57z"/>
		<path class="st1" d="M78.82,63.3c1.03,0,1.83,0.35,2.42,1.04c0.58,0.69,0.88,1.57,0.88,2.62c0,1.06-0.3,1.93-0.9,2.62
			c-0.6,0.69-1.41,1.04-2.44,1.04s-1.84-0.34-2.44-1.03c-0.59-0.69-0.89-1.55-0.89-2.6s0.31-1.93,0.92-2.63
			C76.97,63.66,77.79,63.3,78.82,63.3z M78.8,64.28c-0.71,0-1.25,0.26-1.64,0.78c-0.38,0.52-0.57,1.16-0.57,1.9
			c0,0.75,0.2,1.38,0.59,1.9c0.39,0.52,0.93,0.78,1.61,0.78c0.68,0,1.21-0.25,1.6-0.76s0.57-1.15,0.57-1.92
			c0-0.77-0.18-1.41-0.55-1.92C80.05,64.54,79.51,64.28,78.8,64.28z"/>
		<path class="st1" d="M84.82,73.26h-1.09V63.4h1.09v1.08c0.49-0.79,1.22-1.19,2.18-1.19s1.7,0.34,2.24,1.03
			c0.54,0.69,0.8,1.56,0.8,2.62c0,1.06-0.28,1.94-0.85,2.63c-0.57,0.7-1.31,1.04-2.23,1.04c-0.92,0-1.64-0.4-2.15-1.19V73.26z
			 M86.92,64.3c-0.57,0-1.06,0.21-1.48,0.62c-0.42,0.42-0.62,1.08-0.62,2.01s0.21,1.6,0.63,2.03c0.42,0.43,0.91,0.64,1.46,0.64
			c0.55,0,1.02-0.24,1.41-0.71c0.38-0.47,0.57-1.12,0.57-1.94s-0.19-1.47-0.56-1.95C87.96,64.54,87.49,64.3,86.92,64.3z"/>
	</g>
</g>
<polygon class="st1" points="53.8,33.95 44.79,13.45 35.78,33.95 42.24,33.95 42.24,41.95 48.24,41.95 48.24,33.95 "/>
</svg>
