<svg xmlns="http://www.w3.org/2000/svg" viewBox="0 0 533.588 426.718">
  <path fill="#FFF" d="M325.317 178.786L295.371 122.3l-29.942-57.197-29.941 56.841-29.946 56.842h36.012v72h36v-72"/>
  <circle cx="265.429" cy="155.568" r="154.068" fill="none" stroke="#FFF" stroke-width="3" stroke-miterlimit="10"/>
  <path fill="#FFF" d="M6.554 410.375H0v-58.652h6.554v22.896c3.041-4.646 7.259-6.968 12.651-6.968 5.392 0 9.775 2.032 13.149 6.097 3.373 4.065 5.061 9.223 5.061 15.472 0 6.25-1.591 11.449-4.771 15.597-3.181 4.148-7.577 6.222-13.19 6.222-5.614 0-9.914-2.294-12.9-6.886v6.222zm12.319-36.75c-3.235 0-6.098 1.244-8.586 3.733s-3.733 6.458-3.733 11.905c0 5.448 1.203 9.444 3.608 11.988 2.406 2.544 5.31 3.816 8.711 3.816 3.402 0 6.208-1.41 8.42-4.231 2.212-2.82 3.318-6.664 3.318-11.531 0-4.866-1.148-8.696-3.442-11.49-2.295-2.794-5.06-4.19-8.296-4.19zm39.115 37.166c-3.928 0-7.093-1.162-9.499-3.484-2.406-2.323-3.608-5.378-3.608-9.167 0-3.788 1.534-6.803 4.604-9.043 3.07-2.24 7.26-3.36 12.569-3.36h7.632v-2.157c0-3.318-.747-5.82-2.24-7.508-1.493-1.687-4.245-2.53-8.254-2.53-4.011 0-7.757 1.19-11.241 3.567v-6.554c3.152-1.935 7.301-2.903 12.443-2.903 10.563 0 15.846 5.365 15.846 16.094v26.63h-6.471v-4.978c-2.158 3.596-6.086 5.393-11.781 5.393zm-6.222-12.528c0 2.103.69 3.803 2.073 5.102 1.382 1.3 3.484 1.95 6.306 1.95 2.82 0 5.114-.843 6.886-2.53 1.769-1.687 2.654-3.829 2.654-6.429v-5.393h-7.301c-3.54 0-6.194.692-7.964 2.074-1.77 1.383-2.654 3.125-2.654 5.226zm55.25 13.025c-6.637 0-11.904-2.116-15.804-6.347s-5.849-9.36-5.849-15.389c0-6.028 1.949-11.2 5.849-15.514s9.222-6.471 15.97-6.471c3.595 0 6.803.775 9.623 2.323v6.222c-2.544-1.714-5.531-2.572-8.959-2.572-4.758 0-8.56 1.535-11.407 4.604-2.85 3.07-4.26 6.873-4.231 11.407.027 4.536 1.396 8.31 4.106 11.324 2.71 3.015 6.555 4.521 11.532 4.521 3.206 0 6.193-.913 8.959-2.738v6.222c-2.654 1.606-5.918 2.408-9.789 2.408zm26.381-.913h-6.472v-58.321h6.472v58.321zm8.545-22.067l17.089 22.067h-7.881l-16.924-22.067 16.509-19.993h7.799l-16.592 19.993zm58.486 22.483c-8.297 0-12.444-4.231-12.444-12.693v-24.473h-6.72v-5.31h6.72v-10.453h6.554v10.453h11.614v5.31h-11.614v24.639c0 4.48 2.102 6.72 6.305 6.72 2.157 0 4.065-.635 5.725-1.908v6.222c-1.826.994-3.873 1.493-6.14 1.493zm33.183-43.057c6.083 0 10.854 2.046 14.311 6.139 3.456 4.094 5.185 9.279 5.185 15.555 0 6.278-1.771 11.462-5.309 15.555-3.54 4.094-8.366 6.139-14.477 6.139-6.112 0-10.924-2.032-14.436-6.098-3.513-4.065-5.268-9.208-5.268-15.43 0-6.222 1.811-11.42 5.434-15.597 3.622-4.175 8.475-6.263 14.56-6.263zm-.083 5.808c-4.204 0-7.439 1.549-9.706 4.646-2.269 3.098-3.401 6.858-3.401 11.283s1.161 8.171 3.484 11.241c2.322 3.07 5.502 4.604 9.54 4.604 4.037 0 7.189-1.506 9.458-4.521 2.267-3.014 3.401-6.803 3.401-11.365 0-4.563-1.079-8.351-3.236-11.366-2.156-3.015-5.338-4.522-9.54-4.522zm62.884 37.249c-8.297 0-12.444-4.231-12.444-12.693v-24.473h-6.72v-5.31h6.72v-10.453h6.554v10.453h11.614v5.31h-11.614v24.639c0 4.48 2.102 6.72 6.305 6.72 2.157 0 4.065-.635 5.725-1.908v6.222c-1.827.994-3.874 1.493-6.14 1.493zm48.861-.416h-6.554v-27.211c0-3.041-.788-5.392-2.364-7.051-1.577-1.659-3.775-2.489-6.596-2.489s-5.393 1.19-7.715 3.567c-2.323 2.379-3.484 5.78-3.484 10.204v22.98h-6.472v-58.652h6.472v23.892c2.488-5.253 6.912-7.881 13.273-7.881 4.036 0 7.286 1.244 9.747 3.733s3.692 5.863 3.692 10.121v28.787zm30.362.416c-6.36 0-11.489-1.95-15.389-5.849-3.899-3.899-5.849-9.125-5.849-15.679s1.742-11.766 5.227-15.638c3.484-3.871 7.908-5.808 13.273-5.808 5.364 0 9.595 1.688 12.692 5.061 3.097 3.375 4.646 8.159 4.646 14.352 0 1.771-.139 3.401-.415 4.895h-28.704c.498 4.148 2.074 7.329 4.729 9.54 2.655 2.213 6.235 3.318 10.743 3.318 4.507 0 8.172-.967 10.992-2.903v6.139c-3.262 1.715-7.245 2.572-11.945 2.572zm5.227-34.139c-1.881-2.074-4.438-3.111-7.674-3.111s-5.96 1.134-8.171 3.401c-2.213 2.268-3.514 5.504-3.899 9.706h22.565v-1.659c0-3.484-.941-6.262-2.821-8.337zm53.011 34.139c-8.297 0-12.444-4.231-12.444-12.693v-24.473h-6.72v-5.31h6.72v-10.453h6.554v10.453h11.614v5.31h-11.614v24.639c0 4.48 2.102 6.72 6.305 6.72 2.157 0 4.065-.635 5.725-1.908v6.222c-1.827.994-3.874 1.493-6.14 1.493zm33.182-43.057c6.083 0 10.854 2.046 14.311 6.139 3.456 4.094 5.185 9.279 5.185 15.555 0 6.278-1.771 11.462-5.309 15.555-3.54 4.094-8.366 6.139-14.477 6.139-6.112 0-10.924-2.032-14.436-6.098-3.513-4.065-5.268-9.208-5.268-15.43 0-6.222 1.811-11.42 5.434-15.597 3.623-4.175 8.475-6.263 14.56-6.263zm-.083 5.808c-4.204 0-7.439 1.549-9.706 4.646-2.269 3.098-3.401 6.858-3.401 11.283s1.161 8.171 3.484 11.241c2.322 3.07 5.502 4.604 9.54 4.604 4.037 0 7.189-1.506 9.458-4.521 2.267-3.014 3.401-6.803 3.401-11.365 0-4.563-1.079-8.351-3.236-11.366-2.156-3.015-5.338-4.522-9.54-4.522zm35.673 53.176h-6.472v-58.403h6.472v6.388c2.931-4.7 7.23-7.051 12.899-7.051s10.093 2.032 13.274 6.097c3.18 4.065 4.77 9.237 4.77 15.514 0 6.278-1.673 11.477-5.019 15.597-3.348 4.121-7.744 6.18-13.19 6.18-5.448 0-9.693-2.35-12.734-7.051v22.729zm12.443-53.093c-3.374 0-6.292 1.231-8.752 3.691-2.462 2.462-3.691 6.43-3.691 11.905 0 5.476 1.244 9.486 3.732 12.029 2.489 2.544 5.379 3.816 8.67 3.816 3.29 0 6.068-1.396 8.337-4.189 2.268-2.792 3.401-6.623 3.401-11.49 0-4.866-1.106-8.711-3.318-11.531-2.213-2.821-5.006-4.231-8.379-4.231z"/>
</svg>
