<?xml version="1.0" encoding="utf-8"?>
<!-- Generator: Adobe Illustrator 16.2.1, SVG Export Plug-In . SVG Version: 6.00 Build 0)  -->
<!DOCTYPE svg PUBLIC "-//W3C//DTD SVG 1.1//EN" "http://www.w3.org/Graphics/SVG/1.1/DTD/svg11.dtd">
<svg version="1.1" id="Layer_1" xmlns="http://www.w3.org/2000/svg" xmlns:xlink="http://www.w3.org/1999/xlink" x="0px" y="0px"
	 width="533.588px" height="426.718px" viewBox="0 0 533.588 426.718" enable-background="new 0 0 533.588 426.718"
	 xml:space="preserve">
<g>
	<g>
		<polygon fill="#FFFFFF" points="325.317,178.786 295.371,122.3 265.429,65.103 235.488,121.944 205.542,178.786 241.554,178.786 
			241.554,250.786 277.554,250.786 277.554,178.786 		"/>
		<circle fill="none" stroke="#FFFFFF" stroke-width="3" stroke-miterlimit="10" cx="265.429" cy="155.568" r="154.068"/>
	</g>
	<g>
		<path fill="#FFFFFF" d="M6.554,410.375H0v-58.652h6.554v22.896c3.041-4.646,7.259-6.968,12.651-6.968
			c5.392,0,9.775,2.032,13.149,6.097c3.373,4.065,5.061,9.223,5.061,15.472c0,6.25-1.591,11.449-4.771,15.597
			c-3.181,4.148-7.577,6.222-13.19,6.222c-5.614,0-9.914-2.294-12.9-6.886V410.375z M18.873,373.625
			c-3.235,0-6.098,1.244-8.586,3.733s-3.733,6.458-3.733,11.905c0,5.448,1.203,9.444,3.608,11.988
			c2.406,2.544,5.31,3.816,8.711,3.816c3.402,0,6.208-1.41,8.42-4.231c2.212-2.82,3.318-6.664,3.318-11.531
			c0-4.866-1.148-8.696-3.442-11.49C24.874,375.021,22.109,373.625,18.873,373.625z"/>
		<path fill="#FFFFFF" d="M57.988,410.791c-3.928,0-7.093-1.162-9.499-3.484c-2.406-2.323-3.608-5.378-3.608-9.167
			c0-3.788,1.534-6.803,4.604-9.043c3.07-2.24,7.26-3.36,12.569-3.36h7.632v-2.157c0-3.318-0.747-5.82-2.24-7.508
			c-1.493-1.687-4.245-2.53-8.254-2.53c-4.011,0-7.757,1.19-11.241,3.567v-6.554c3.152-1.935,7.301-2.903,12.443-2.903
			c10.563,0,15.846,5.365,15.846,16.094v26.63h-6.471v-4.978C67.611,408.994,63.683,410.791,57.988,410.791z M51.766,398.263
			c0,2.103,0.69,3.803,2.073,5.102c1.382,1.3,3.484,1.95,6.306,1.95c2.82,0,5.114-0.843,6.886-2.53
			c1.769-1.687,2.654-3.829,2.654-6.429v-5.393h-7.301c-3.54,0-6.194,0.692-7.964,2.074C52.65,394.42,51.766,396.162,51.766,398.263
			z"/>
		<path fill="#FFFFFF" d="M107.016,411.288c-6.637,0-11.904-2.116-15.804-6.347s-5.849-9.36-5.849-15.389
			c0-6.028,1.949-11.2,5.849-15.514s9.222-6.471,15.97-6.471c3.595,0,6.803,0.775,9.623,2.323v6.222
			c-2.544-1.714-5.531-2.572-8.959-2.572c-4.758,0-8.56,1.535-11.407,4.604c-2.85,3.07-4.26,6.873-4.231,11.407
			c0.027,4.536,1.396,8.31,4.106,11.324c2.71,3.015,6.555,4.521,11.532,4.521c3.206,0,6.193-0.913,8.959-2.738v6.222
			C114.151,410.486,110.887,411.288,107.016,411.288z"/>
		<path fill="#FFFFFF" d="M133.397,410.375h-6.472v-58.321h6.472V410.375z M141.942,388.308l17.089,22.067h-7.881l-16.924-22.067
			l16.509-19.993h7.799L141.942,388.308z"/>
		<path fill="#FFFFFF" d="M200.428,410.791c-8.297,0-12.444-4.231-12.444-12.693v-24.473h-6.72v-5.31h6.72v-10.453h6.554v10.453
			h11.614v5.31h-11.614v24.639c0,4.48,2.102,6.72,6.305,6.72c2.157,0,4.065-0.635,5.725-1.908v6.222
			C204.742,410.292,202.695,410.791,200.428,410.791z"/>
		<path fill="#FFFFFF" d="M233.611,367.734c6.083,0,10.854,2.046,14.311,6.139c3.456,4.094,5.185,9.279,5.185,15.555
			c0,6.278-1.771,11.462-5.309,15.555c-3.54,4.094-8.366,6.139-14.477,6.139c-6.112,0-10.924-2.032-14.436-6.098
			c-3.513-4.065-5.268-9.208-5.268-15.43c0-6.222,1.811-11.42,5.434-15.597C222.673,369.822,227.526,367.734,233.611,367.734z
			 M233.528,373.542c-4.204,0-7.439,1.549-9.706,4.646c-2.269,3.098-3.401,6.858-3.401,11.283c0,4.425,1.161,8.171,3.484,11.241
			c2.322,3.07,5.502,4.604,9.54,4.604c4.037,0,7.189-1.506,9.458-4.521c2.267-3.014,3.401-6.803,3.401-11.365
			c0-4.563-1.079-8.351-3.236-11.366C240.912,375.049,237.73,373.542,233.528,373.542z"/>
		<path fill="#FFFFFF" d="M296.412,410.791c-8.297,0-12.444-4.231-12.444-12.693v-24.473h-6.72v-5.31h6.72v-10.453h6.554v10.453
			h11.614v5.31h-11.614v24.639c0,4.48,2.102,6.72,6.305,6.72c2.157,0,4.065-0.635,5.725-1.908v6.222
			C300.725,410.292,298.678,410.791,296.412,410.791z"/>
		<path fill="#FFFFFF" d="M345.273,410.375h-6.554v-27.211c0-3.041-0.788-5.392-2.364-7.051c-1.577-1.659-3.775-2.489-6.596-2.489
			s-5.393,1.19-7.715,3.567c-2.323,2.379-3.484,5.78-3.484,10.204v22.98h-6.472v-58.652h6.472v23.892
			c2.488-5.253,6.912-7.881,13.273-7.881c4.036,0,7.286,1.244,9.747,3.733s3.692,5.863,3.692,10.121V410.375z"/>
		<path fill="#FFFFFF" d="M375.635,410.791c-6.36,0-11.489-1.95-15.389-5.849c-3.899-3.899-5.849-9.125-5.849-15.679
			s1.742-11.766,5.227-15.638c3.484-3.871,7.908-5.808,13.273-5.808c5.364,0,9.595,1.688,12.692,5.061
			c3.097,3.375,4.646,8.159,4.646,14.352c0,1.771-0.139,3.401-0.415,4.895h-28.704c0.498,4.148,2.074,7.329,4.729,9.54
			c2.655,2.213,6.235,3.318,10.743,3.318c4.507,0,8.172-0.967,10.992-2.903v6.139C384.318,409.934,380.335,410.791,375.635,410.791z
			 M380.862,376.652c-1.881-2.074-4.438-3.111-7.674-3.111s-5.96,1.134-8.171,3.401c-2.213,2.268-3.514,5.504-3.899,9.706h22.565
			v-1.659C383.683,381.505,382.742,378.727,380.862,376.652z"/>
		<path fill="#FFFFFF" d="M433.873,410.791c-8.297,0-12.444-4.231-12.444-12.693v-24.473h-6.72v-5.31h6.72v-10.453h6.554v10.453
			h11.614v5.31h-11.614v24.639c0,4.48,2.102,6.72,6.305,6.72c2.157,0,4.065-0.635,5.725-1.908v6.222
			C438.186,410.292,436.139,410.791,433.873,410.791z"/>
		<path fill="#FFFFFF" d="M467.055,367.734c6.083,0,10.854,2.046,14.311,6.139c3.456,4.094,5.185,9.279,5.185,15.555
			c0,6.278-1.771,11.462-5.309,15.555c-3.54,4.094-8.366,6.139-14.477,6.139c-6.112,0-10.924-2.032-14.436-6.098
			c-3.513-4.065-5.268-9.208-5.268-15.43c0-6.222,1.811-11.42,5.434-15.597C456.118,369.822,460.97,367.734,467.055,367.734z
			 M466.972,373.542c-4.204,0-7.439,1.549-9.706,4.646c-2.269,3.098-3.401,6.858-3.401,11.283c0,4.425,1.161,8.171,3.484,11.241
			c2.322,3.07,5.502,4.604,9.54,4.604c4.037,0,7.189-1.506,9.458-4.521c2.267-3.014,3.401-6.803,3.401-11.365
			c0-4.563-1.079-8.351-3.236-11.366C474.356,375.049,471.174,373.542,466.972,373.542z"/>
		<path fill="#FFFFFF" d="M502.645,426.718h-6.472v-58.403h6.472v6.388c2.931-4.7,7.23-7.051,12.899-7.051
			s10.093,2.032,13.274,6.097c3.18,4.065,4.77,9.237,4.77,15.514c0,6.278-1.673,11.477-5.019,15.597
			c-3.348,4.121-7.744,6.18-13.19,6.18c-5.448,0-9.693-2.35-12.734-7.051V426.718z M515.088,373.625
			c-3.374,0-6.292,1.231-8.752,3.691c-2.462,2.462-3.691,6.43-3.691,11.905c0,5.476,1.244,9.486,3.732,12.029
			c2.489,2.544,5.379,3.816,8.67,3.816c3.29,0,6.068-1.396,8.337-4.189c2.268-2.792,3.401-6.623,3.401-11.49
			c0-4.866-1.106-8.711-3.318-11.531C521.254,375.035,518.461,373.625,515.088,373.625z"/>
	</g>
</g>
</svg>
