<?xml version="1.0" encoding="utf-8"?>
<!-- Generator: Adobe Illustrator 16.2.1, SVG Export Plug-In . SVG Version: 6.00 Build 0)  -->
<!DOCTYPE svg PUBLIC "-//W3C//DTD SVG 1.1//EN" "http://www.w3.org/Graphics/SVG/1.1/DTD/svg11.dtd">
<svg version="1.1" id="Layer_1" xmlns="http://www.w3.org/2000/svg" xmlns:xlink="http://www.w3.org/1999/xlink" x="0px" y="0px"
	 width="200px" height="195.062px" viewBox="0 0 200 195.062" enable-background="new 0 0 200 195.062" xml:space="preserve">
<g>
	<path fill-rule="evenodd" clip-rule="evenodd" fill="#FFFFFF" d="M100,0C44.779,0,0,44.77,0,99.999
		c0,44.184,28.653,81.667,68.387,94.892c4.997,0.925,6.833-2.171,6.833-4.812c0-2.383-0.093-10.262-0.137-18.617
		c-27.819,6.049-33.689-11.798-33.689-11.798c-4.55-11.56-11.104-14.632-11.104-14.632c-9.074-6.207,0.684-6.082,0.684-6.082
		c10.041,0.706,15.329,10.309,15.329,10.309c8.919,15.285,23.394,10.867,29.101,8.312c0.897-6.462,3.488-10.876,6.35-13.373
		C59.541,141.67,36.19,133.093,36.19,94.777c0-10.917,3.907-19.837,10.305-26.842c-1.038-2.52-4.462-12.689,0.969-26.465
		c0,0,8.397-2.686,27.506,10.251c7.978-2.215,16.532-3.326,25.03-3.365c8.498,0.039,17.059,1.15,25.052,3.365
		c19.088-12.937,27.472-10.251,27.472-10.251c5.443,13.775,2.021,23.945,0.983,26.465c6.41,7.004,10.291,15.924,10.291,26.842
		c0,38.41-23.394,46.864-45.661,49.342c3.586,3.101,6.781,9.188,6.781,18.516c0,13.38-0.116,24.15-0.116,27.443
		c0,2.661,1.803,5.779,6.87,4.8C171.383,181.64,200,144.167,200,99.999C200,44.77,155.228,0,100,0z"/>
	<path fill="#FFFFFF" d="M37.876,143.578c-0.22,0.499-1.003,0.647-1.715,0.305c-0.726-0.327-1.132-1.003-0.896-1.501
		c0.214-0.512,0.997-0.653,1.722-0.314C37.712,142.395,38.127,143.08,37.876,143.578L37.876,143.578z M36.645,142.666"/>
	<path fill="#FFFFFF" d="M41.927,148.097c-0.478,0.44-1.41,0.236-2.042-0.463c-0.655-0.698-0.776-1.629-0.293-2.079
		c0.491-0.44,1.396-0.233,2.05,0.463C42.297,146.723,42.425,147.647,41.927,148.097L41.927,148.097z M40.973,147.071"/>
	<path fill="#FFFFFF" d="M45.869,153.854c-0.612,0.427-1.615,0.028-2.234-0.861c-0.613-0.889-0.613-1.957,0.014-2.383
		c0.62-0.428,1.608-0.043,2.235,0.837C46.495,152.354,46.495,153.42,45.869,153.854L45.869,153.854z M45.869,153.854"/>
	<path fill="#FFFFFF" d="M51.271,159.42c-0.548,0.605-1.716,0.44-2.569-0.385c-0.875-0.806-1.118-1.95-0.569-2.556
		c0.557-0.604,1.73-0.434,2.591,0.386C51.591,157.67,51.854,158.822,51.271,159.42L51.271,159.42z M51.271,159.42"/>
	<path fill="#FFFFFF" d="M58.723,162.651c-0.242,0.782-1.366,1.139-2.499,0.806c-1.132-0.343-1.87-1.263-1.643-2.052
		c0.234-0.788,1.364-1.16,2.505-0.805C58.217,160.943,58.957,161.853,58.723,162.651L58.723,162.651z M58.723,162.651"/>
	<path fill="#FFFFFF" d="M66.907,163.25c0.027,0.824-0.934,1.507-2.122,1.522c-1.194,0.026-2.163-0.641-2.177-1.451
		c0-0.835,0.939-1.512,2.135-1.531C65.932,161.769,66.907,162.431,66.907,163.25L66.907,163.25z M66.907,163.25"/>
	<path fill="#FFFFFF" d="M74.522,161.953c0.142,0.805-0.685,1.629-1.865,1.85c-1.161,0.214-2.234-0.285-2.384-1.08
		c-0.144-0.825,0.697-1.653,1.857-1.867C73.312,160.652,74.371,161.135,74.522,161.953L74.522,161.953z M74.522,161.953"/>
</g>
</svg>
