<?xml version="1.0" encoding="utf-8"?>
<!-- Generator: Adobe Illustrator 16.2.1, SVG Export Plug-In . SVG Version: 6.00 Build 0)  -->
<!DOCTYPE svg PUBLIC "-//W3C//DTD SVG 1.1//EN" "http://www.w3.org/Graphics/SVG/1.1/DTD/svg11.dtd">
<svg version="1.1" id="Layer_1" xmlns="http://www.w3.org/2000/svg" xmlns:xlink="http://www.w3.org/1999/xlink" x="0px" y="0px"
	 width="200.054px" height="200.055px" viewBox="0 0 200.054 200.055" enable-background="new 0 0 200.054 200.055"
	 xml:space="preserve">
<g>
	<path fill="#FFFFFF" d="M0,179.736c0-53.14,0-106.279,0-159.418c0.132-0.43,0.296-0.854,0.391-1.292
		C2.472,9.323,8.322,3.207,17.887,0.62c0.807-0.218,1.621-0.414,2.432-0.62c53.139,0,106.278,0,159.418,0
		c0.363,0.124,0.719,0.29,1.093,0.366c9.814,2.003,15.981,7.875,18.602,17.516c0.22,0.809,0.416,1.624,0.623,2.436
		c0,53.139,0,106.279,0,159.418c-0.132,0.43-0.31,0.852-0.391,1.291c-1.711,9.288-8.714,16.548-17.87,18.52
		c-0.69,0.148-1.371,0.338-2.057,0.508c-53.14,0-106.279,0-159.418,0c-0.364-0.125-0.719-0.299-1.093-0.365
		c-9.387-1.691-16.524-8.459-18.66-17.704C0.392,181.232,0.189,180.486,0,179.736z M23.133,84.728
		c-0.034,0.676-0.081,1.186-0.081,1.694c-0.003,27.477-0.011,54.953,0.004,82.431c0.002,4.979,3.31,8.146,8.464,8.147
		c45.643,0.008,91.285,0.008,136.927,0.001c5.434-0.001,8.555-3.168,8.556-8.649c0.004-27.151,0.002-54.302,0.002-81.453
		c0-0.694,0-1.388,0-2.14c-5.89,0-11.521,0-17.325,0c4.295,19.016,1.269,36.555-10.441,52.093
		c-11.733,15.567-27.588,23.848-47.122,24.597c-16.346,0.628-30.883-4.484-42.938-15.505
		c-18.129-16.572-23.872-37.264-18.893-61.217C34.531,84.728,28.951,84.728,23.133,84.728z M138.51,100.099
		c0.09-21.229-17.162-38.524-38.457-38.556c-21.191-0.032-38.318,17.007-38.509,38.31c-0.189,21.185,17.012,38.518,38.36,38.653
		C121.118,138.639,138.422,121.425,138.51,100.099z M157.877,23.038c-3.711,0-7.421-0.022-11.131,0.005
		c-4.922,0.037-8.187,3.074-8.254,7.955c-0.104,7.549-0.104,15.102,0.002,22.65c0.066,4.744,3.144,7.839,7.882,7.909
		c7.549,0.112,15.102,0.107,22.65,0.006c4.891-0.065,7.961-3.338,7.974-8.229c0.019-7.355,0.02-14.71-0.001-22.065
		c-0.013-4.94-3.238-8.179-8.188-8.225C165.167,23.01,161.521,23.038,157.877,23.038z"/>
</g>
</svg>
