<svg xmlns="http://www.w3.org/2000/svg" x="0px" y="0px" viewBox="0 0 144.004 144">
  <path fill="#FFF" d="M133.345,0H10.629C4.765,0,0,4.648,0,10.376V133.61C0,139.345,4.765,144,10.629,144h122.716 c5.874,0,10.659-4.655,10.659-10.39V10.376C144.004,4.648,139.219,0,133.345,0z M42.71,122.707H21.35V53.985h21.36V122.707z M32.034,44.591c-6.846,0-12.386-5.549-12.386-12.386c0-6.831,5.54-12.38,12.386-12.38c6.829,0,12.378,5.549,12.378,12.38 C44.412,39.042,38.863,44.591,32.034,44.591z M122.708,122.707h-21.344v-33.42c0-7.969-0.146-18.22-11.1-18.22 c-11.112,0-12.818,8.681-12.818,17.644v33.996h-21.34V53.985h20.484v9.39h0.286c2.852-5.403,9.819-11.099,20.21-11.099 c21.628,0,25.621,14.234,25.621,32.736V122.707z"/>
</svg>
