<?xml version="1.0" encoding="utf-8"?>
<!-- Generator: Adobe Illustrator 16.2.1, SVG Export Plug-In . SVG Version: 6.00 Build 0)  -->
<!DOCTYPE svg PUBLIC "-//W3C//DTD SVG 1.1//EN" "http://www.w3.org/Graphics/SVG/1.1/DTD/svg11.dtd">
<svg version="1.1" id="Layer_1" xmlns="http://www.w3.org/2000/svg" xmlns:xlink="http://www.w3.org/1999/xlink" x="0px" y="0px"
	 width="199.89px" height="162.446px" viewBox="0 0 199.89 162.446" enable-background="new 0 0 199.89 162.446"
	 xml:space="preserve">
<g>
	<path fill="#FFFFFF" d="M199.89,19.23c-7.354,3.262-15.259,5.467-23.554,6.458c8.467-5.075,14.97-13.112,18.031-22.688
		c-7.923,4.7-16.7,8.113-26.041,9.952C160.845,4.98,150.187,0,138.393,0c-22.649,0-41.012,18.362-41.012,41.009
		c0,3.215,0.363,6.344,1.062,9.346C64.36,48.645,34.142,32.318,13.916,7.507c-3.53,6.057-5.552,13.101-5.552,20.617
		c0,14.228,7.24,26.78,18.244,34.134c-6.722-0.213-13.045-2.058-18.575-5.13c-0.003,0.171-0.004,0.343-0.004,0.516
		c0,19.87,14.136,36.445,32.897,40.212c-3.441,0.938-7.064,1.438-10.805,1.438c-2.643,0-5.211-0.257-7.715-0.736
		c5.219,16.293,20.364,28.149,38.309,28.48c-14.036,10.999-31.718,17.556-50.932,17.556c-3.31,0-6.575-0.194-9.783-0.573
		c18.149,11.636,39.705,18.425,62.864,18.425c75.433,0,116.681-62.49,116.681-116.682c0-1.778-0.04-3.546-0.118-5.305
		C187.438,34.677,194.392,27.454,199.89,19.23L199.89,19.23z"/>
</g>
</svg>
