<?xml version="1.0" encoding="utf-8"?>
<!-- Generator: Adobe Illustrator 16.2.1, SVG Export Plug-In . SVG Version: 6.00 Build 0)  -->
<!DOCTYPE svg PUBLIC "-//W3C//DTD SVG 1.1//EN" "http://www.w3.org/Graphics/SVG/1.1/DTD/svg11.dtd">
<svg version="1.1" id="Layer_1" xmlns="http://www.w3.org/2000/svg" xmlns:xlink="http://www.w3.org/1999/xlink" x="0px" y="0px"
	 width="1548.371px" height="381.051px" viewBox="0 0 1548.371 381.051" enable-background="new 0 0 1548.371 381.051"
	 xml:space="preserve">
<g>
	<path fill-rule="evenodd" clip-rule="evenodd" fill="#00A6B6" d="M200.452,79.508c0.408-0.725,0.705-1.489,1.239-2.142
		c7.793-9.333-0.184-17.939-6.298-25.559c-7.27-8.883-12.825-11.034-16.735-17.307c-4.543-7.302-0.342-19.428,2.662-26.413
		c1.029-2.428,5.089-6.681,6.917-8.088c-0.488,1.51-2.261,4.345-2.482,5.904c-0.912,6.334,2.301,12.503,6.135,18.643
		c4.578,7.363,9.746,14.646,13.499,22.111c5.414,10.77,5.221,21.01-1.662,30.147c-0.781,1.04-1.801,1.968-2.713,2.957
		C200.829,79.682,200.641,79.589,200.452,79.508z"/>
	<path fill-rule="evenodd" clip-rule="evenodd" fill="#00A6B6" d="M179.687,101.648c0.403-0.714,0.693-1.478,1.239-2.121
		c7.786-9.342-0.193-17.95-6.307-25.558c-7.266-8.892-12.82-11.034-16.73-17.316c-4.549-7.303-0.348-19.419,2.656-26.425
		c1.035-2.417,5.094-6.66,6.925-8.077c-0.49,1.52-2.259,4.354-2.488,5.904c-0.918,6.344,2.3,12.514,6.129,18.663
		c4.589,7.344,9.75,14.625,13.507,22.1c5.417,10.76,5.219,21.01-1.655,30.137c-0.785,1.04-1.806,1.978-2.719,2.958
		C180.055,101.832,179.871,101.74,179.687,101.648z"/>
	<path fill="#00A6B6" d="M367.003,239.339c-7.445-6.18-22.003-9.597-32.003-10.362v-2.634h-3.43h-53.11h-4.762h0.03h-30.625
		l-21.584,90.776L200.1,226.343h-31.039l-21.427,90.776l-21.585-90.776h-6.763H95.178H0v33h43v92h31v-92h26.97l23.905,92h37.154
		l22.42-94.958l22.676,94.958h37.145l23.818-92h67.59c2.745,0,5.064-1.309,6.936,0.345c3.401,3.007,5.099,5.673,5.099,11.242
		c0,5.589-1.697,4.951-5.099,7.99s-8.226-0.576-14.478-0.576h-17.654h-4.129H272v73h42v-40h17.57
		c15.898,0,28.097-4.064,36.605-11.123c8.507-7.047,12.172-17.381,12.172-30.476C380.348,256.69,375.507,246.387,367.003,239.339z"
		/>
	<path fill="#00A6B6" d="M25.552,210.731c16.379,2.07,31.702-9.811,42.798-13.166s27.735,10.597,46.755,10.065
		c19.021-0.509,29.056-7.485,38.565-6.975c4.621,0.254,13.396,8.791,17.908,11.625c8.904,3.876,25.257,2.5,31.051,0
		c3.079-1.457,13.435-11.371,18.101-11.625c9.619-0.51,19.761,6.466,38.996,6.975c19.224,0.531,36.051-13.421,47.274-10.065
		c11.213,3.355,26.699,15.236,43.257,13.166c4.808-0.265,6.68-3.639,13.354-2.866c3.913,0.449,8.921-2.523,13.046,8.477h0.361
		c-3.385-73-189.739-85.964-189.739-85.964S8.898,145.844,1.412,211.757c3.631-2.642,7.67-5.04,10.934-5.408
		C18.949,205.554,20.799,210.467,25.552,210.731z M222.296,136.415c8.15,1.53,17.165,6.803,17.165,6.803s-10.291,1.499-18.434-0.041
		c-8.138-1.53-14.104-6.16-14.104-6.16S214.158,134.875,222.296,136.415z M204.944,144.339c5.304,4.946,7.567,15.146,7.567,15.146
		s-10.195-1.673-15.496-6.609c-5.31-4.936-5.651-13.196-5.651-13.196S199.625,139.413,204.944,144.339z M170.008,144.339
		c5.309-4.926,13.575-4.66,13.575-4.66s-0.336,8.26-5.64,13.196c-5.314,4.936-15.507,6.609-15.507,6.609
		S164.706,149.285,170.008,144.339z M151.764,136.415c8.144-1.54,15.375,0.602,15.375,0.602s-5.967,4.63-14.105,6.16
		c-8.138,1.54-18.43,0.041-18.43,0.041S143.62,137.945,151.764,136.415z"/>
	<path fill="#00A6B6" d="M377.056,203.318c0-0.193,0-0.336,0-0.336h-0.037c0,0.102,0,0.224,0.005,0.315
		C377.04,203.308,377.049,203.318,377.056,203.318z"/>
</g>
<g>
	<path fill="#00A6B6" d="M472.46,352.979c-14.621,0-21.931-7.457-21.931-22.37v-43.131h-11.843v-9.357h11.843V259.7h11.55v18.422
		h20.469v9.357h-20.469v43.424c0,7.895,3.703,11.843,11.112,11.843c3.801,0,7.164-1.12,10.088-3.363v10.966
		C480.062,352.102,476.456,352.979,472.46,352.979z"/>
	<path fill="#00A6B6" d="M558.573,352.248h-11.55v-47.956c0-5.359-1.39-9.503-4.167-12.427c-2.778-2.924-6.652-4.386-11.623-4.386
		c-4.972,0-9.504,2.097-13.598,6.287c-4.094,4.192-6.141,10.187-6.141,17.983v40.499h-11.404V248.88h11.404v42.107
		c4.386-9.259,12.183-13.89,23.393-13.89c7.114,0,12.842,2.193,17.18,6.579c4.336,4.386,6.506,10.333,6.506,17.837V352.248z"/>
	<path fill="#00A6B6" d="M612.084,352.979c-11.21,0-20.25-3.437-27.121-10.308c-6.872-6.872-10.308-16.083-10.308-27.633
		c0-11.551,3.07-20.736,9.211-27.561c6.141-6.821,13.938-10.234,23.393-10.234c9.453,0,16.91,2.975,22.37,8.919
		c5.457,5.946,8.188,14.378,8.188,25.294c0,3.12-0.245,5.994-0.731,8.626h-50.587c0.877,7.31,3.655,12.916,8.333,16.813
		c4.679,3.899,10.988,5.849,18.935,5.849c7.942,0,14.4-1.705,19.372-5.118v10.819C627.385,351.469,620.367,352.979,612.084,352.979z
		 M621.295,292.815c-3.314-3.655-7.822-5.483-13.524-5.483s-10.504,1.999-14.401,5.995c-3.899,3.998-6.19,9.699-6.871,17.105h39.768
		v-2.924C626.266,301.368,624.607,296.471,621.295,292.815z"/>
	<path fill="#00A6B6" d="M685.332,352.248h-14.183l-22.808-74.126h12.281c9.649,32.947,15.498,53.902,17.545,62.869
		c1.071-4.774,6.968-25.732,17.69-62.869h12.281l18.13,63.015c1.266-5.165,7.505-26.171,18.715-63.015h11.842l-23.393,74.126
		h-14.182l-7.019-24.271l-10.234-36.99C700.83,295.765,695.273,316.186,685.332,352.248z"/>
	<path fill="#00A6B6" d="M829.636,352.248h-11.55v-47.956c0-5.359-1.39-9.503-4.167-12.427c-2.778-2.924-6.652-4.386-11.623-4.386
		c-4.972,0-9.504,2.097-13.598,6.287c-4.094,4.192-6.141,10.187-6.141,17.983v40.499h-11.404V248.88h11.404v42.107
		c4.386-9.259,12.183-13.89,23.393-13.89c7.114,0,12.842,2.193,17.18,6.579c4.336,4.386,6.506,10.333,6.506,17.837V352.248z"/>
	<path fill="#00A6B6" d="M880.953,277.098c10.721,0,19.128,3.607,25.221,10.819c6.09,7.214,9.138,16.352,9.138,27.414
		c0,11.063-3.12,20.201-9.357,27.414c-6.238,7.214-14.743,10.818-25.513,10.818c-10.771,0-19.251-3.582-25.439-10.746
		c-6.191-7.164-9.284-16.229-9.284-27.194c0-10.965,3.191-20.126,9.576-27.486C861.677,280.778,870.229,277.098,880.953,277.098z
		 M880.807,287.333c-7.408,0-13.11,2.73-17.105,8.188c-3.998,5.459-5.995,12.087-5.995,19.884c0,7.799,2.047,14.401,6.141,19.811
		c4.094,5.41,9.698,8.114,16.814,8.114c7.113,0,12.669-2.654,16.667-7.968c3.996-5.312,5.994-11.989,5.994-20.03
		s-1.9-14.717-5.701-20.03C893.819,289.989,888.213,287.333,880.807,287.333z"/>
	<path fill="#00A6B6" d="M944.406,352.248h-11.551V248.88h11.551V352.248z"/>
	<path fill="#00A6B6" d="M999.378,352.979c-11.21,0-20.25-3.437-27.121-10.308c-6.872-6.872-10.308-16.083-10.308-27.633
		c0-11.551,3.07-20.736,9.211-27.561c6.141-6.821,13.938-10.234,23.393-10.234c9.453,0,16.91,2.975,22.37,8.919
		c5.457,5.946,8.188,14.378,8.188,25.294c0,3.12-0.245,5.994-0.731,8.626h-50.587c0.877,7.31,3.655,12.916,8.333,16.813
		c4.679,3.899,10.988,5.849,18.935,5.849c7.942,0,14.4-1.705,19.372-5.118v10.819
		C1014.679,351.469,1007.661,352.979,999.378,352.979z M1008.589,292.815c-3.314-3.655-7.822-5.483-13.524-5.483
		s-10.504,1.999-14.401,5.995c-3.899,3.998-6.19,9.699-6.871,17.105h39.768v-2.924
		C1013.56,301.368,1011.901,296.471,1008.589,292.815z"/>
	<path fill="#00A6B6" d="M1054.057,381.051h-11.404V278.122h11.404v11.258c5.165-8.284,12.743-12.427,22.735-12.427
		c9.989,0,17.786,3.582,23.393,10.746c5.604,7.164,8.407,16.279,8.407,27.341c0,11.063-2.949,20.227-8.846,27.486
		c-5.898,7.263-13.647,10.893-23.247,10.893c-9.602,0-17.083-4.142-22.442-12.428V381.051z M1075.987,287.479
		c-5.946,0-11.089,2.17-15.425,6.507c-4.338,4.338-6.506,11.33-6.506,20.98c0,9.649,2.193,16.718,6.579,21.199
		c4.387,4.484,9.479,6.726,15.278,6.726c5.799,0,10.696-2.46,14.694-7.383c3.995-4.921,5.994-11.672,5.994-20.25
		c0-8.576-1.951-15.352-5.849-20.322C1086.854,289.964,1081.932,287.479,1075.987,287.479z"/>
	<path fill="#00A6B6" d="M1126.281,377.688c-2.536,0-4.583-0.244-6.141-0.73v-10.381c1.462,0.389,3.118,0.585,4.971,0.585
		c9.844,0,16.813-5.606,20.907-16.813l-29.972-72.226h13.012l22.662,58.043c0.779-2.728,7.553-22.077,20.323-58.043h12.427
		l-26.755,72.226c-3.802,10.038-8.312,17.105-13.524,21.199C1138.976,375.641,1133.007,377.688,1126.281,377.688z"/>
	<path fill="#00A6B6" d="M1230.671,352.979c-11.21,0-20.25-3.437-27.121-10.308c-6.872-6.872-10.308-16.083-10.308-27.633
		c0-11.551,3.07-20.736,9.211-27.561c6.141-6.821,13.938-10.234,23.393-10.234c9.453,0,16.91,2.975,22.37,8.919
		c5.457,5.946,8.188,14.378,8.188,25.294c0,3.12-0.245,5.994-0.731,8.626h-50.587c0.877,7.31,3.655,12.916,8.333,16.813
		c4.679,3.899,10.988,5.849,18.935,5.849c7.942,0,14.4-1.705,19.372-5.118v10.819
		C1245.972,351.469,1238.954,352.979,1230.671,352.979z M1239.882,292.815c-3.314-3.655-7.822-5.483-13.524-5.483
		s-10.504,1.999-14.401,5.995c-3.899,3.998-6.19,9.699-6.871,17.105h39.768v-2.924
		C1244.853,301.368,1243.194,296.471,1239.882,292.815z"/>
	<path fill="#00A6B6" d="M1281.549,338.651c1.656,1.658,2.486,3.705,2.486,6.141c0,2.438-0.83,4.484-2.486,6.141
		c-1.658,1.656-3.705,2.485-6.141,2.485c-2.438,0-4.484-0.829-6.141-2.485c-1.658-1.656-2.485-3.703-2.485-6.141
		c0-2.436,0.827-4.482,2.485-6.141c1.656-1.656,3.703-2.486,6.141-2.486C1277.844,336.165,1279.891,336.995,1281.549,338.651z"/>
	<path fill="#00A6B6" d="M1331.987,353.856c-11.696,0-20.98-3.729-27.852-11.185c-6.872-7.457-10.308-16.496-10.308-27.121
		c0-10.623,3.436-19.738,10.308-27.341c6.871-7.603,16.251-11.404,28.145-11.404c6.335,0,11.988,1.366,16.96,4.094v10.965
		c-4.484-3.02-9.748-4.532-15.79-4.532c-8.385,0-15.085,2.705-20.104,8.115c-5.021,5.409-7.507,12.112-7.457,20.104
		c0.048,7.993,2.461,14.646,7.237,19.957c4.774,5.313,11.551,7.968,20.323,7.968c5.651,0,10.915-1.608,15.79-4.824v10.965
		C1344.562,352.442,1338.81,353.856,1331.987,353.856z"/>
	<path fill="#00A6B6" d="M1397.926,277.098c10.721,0,19.128,3.607,25.221,10.819c6.09,7.214,9.138,16.352,9.138,27.414
		c0,11.063-3.12,20.201-9.357,27.414c-6.238,7.214-14.743,10.818-25.513,10.818c-10.771,0-19.251-3.582-25.439-10.746
		c-6.191-7.164-9.284-16.229-9.284-27.194c0-10.965,3.191-20.126,9.576-27.486C1378.649,280.778,1387.202,277.098,1397.926,277.098z
		 M1397.779,287.333c-7.408,0-13.11,2.73-17.105,8.188c-3.998,5.459-5.995,12.087-5.995,19.884c0,7.799,2.047,14.401,6.141,19.811
		c4.094,5.41,9.698,8.114,16.814,8.114c7.113,0,12.669-2.654,16.667-7.968c3.996-5.312,5.994-11.989,5.994-20.03
		s-1.9-14.717-5.701-20.03C1410.792,289.989,1405.186,287.333,1397.779,287.333z"/>
	<path fill="#00A6B6" d="M1548.371,352.248h-11.55v-47.956c0-11.207-4.729-16.813-14.183-16.813c-4.679,0-8.87,2.12-12.573,6.36
		c-3.706,4.24-5.557,10.212-5.557,17.91v40.499h-11.55v-47.956c0-11.207-4.729-16.813-14.182-16.813
		c-4.679,0-8.871,2.12-12.574,6.36c-3.705,4.24-5.556,10.212-5.556,17.91v40.499h-11.404v-74.126h11.404v11.989
		c4.094-8.674,11.062-13.012,20.907-13.012c11.404,0,18.616,4.825,21.639,14.475c2.143-4.679,5.14-8.261,8.992-10.747
		c3.849-2.485,8.162-3.728,12.938-3.728c7.699,0,13.499,2.193,17.398,6.579c3.897,4.386,5.849,10.285,5.849,17.691V352.248z"/>
</g>
</svg>
