<?xml version="1.0" encoding="utf-8"?>
<!-- Generator: Adobe Illustrator 16.2.1, SVG Export Plug-In . SVG Version: 6.00 Build 0)  -->
<!DOCTYPE svg PUBLIC "-//W3C//DTD SVG 1.1//EN" "http://www.w3.org/Graphics/SVG/1.1/DTD/svg11.dtd">
<svg version="1.1" id="Layer_1" xmlns="http://www.w3.org/2000/svg" xmlns:xlink="http://www.w3.org/1999/xlink" x="0px" y="0px"
	 width="1289.219px" height="1431.638px" viewBox="0 0 1289.219 1431.638" enable-background="new 0 0 1289.219 1431.638"
	 xml:space="preserve">
<g>
	<path fill-rule="evenodd" clip-rule="evenodd" fill="#00A6B6" d="M677.413,269.572c1.38-2.419,2.367-5.034,4.202-7.238
		c26.407-31.647-0.635-60.832-21.372-86.656c-24.648-30.128-43.482-37.418-56.733-58.688c-15.42-24.76-1.166-65.875,9.005-89.598
		C616.031,19.177,629.796,4.777,635.989,0c-1.647,5.111-7.659,14.743-8.422,20.018c-3.104,21.483,7.796,42.418,20.79,63.25
		c15.54,24.94,33.044,49.623,45.789,74.949c18.362,36.501,17.693,71.235-5.635,102.213c-2.659,3.524-6.115,6.689-9.203,10.018
		C678.682,270.155,678.039,269.863,677.413,269.572z"/>
	<path fill-rule="evenodd" clip-rule="evenodd" fill="#00A6B6" d="M606.983,344.692c1.381-2.427,2.367-5.034,4.203-7.238
		c26.406-31.646-0.635-60.832-21.373-86.655c-24.648-30.129-43.474-37.419-56.724-58.688c-15.429-24.76-1.175-65.866,8.997-89.597
		c3.517-8.217,17.282-22.616,23.474-27.394c-1.646,5.12-7.659,14.743-8.422,20.018c-3.104,21.483,7.796,42.427,20.789,63.251
		c15.541,24.939,33.044,49.622,45.789,74.957c18.371,36.492,17.693,71.227-5.635,102.204c-2.659,3.525-6.115,6.689-9.202,10.018
		C608.253,345.284,607.618,344.984,606.983,344.692z"/>
	<path fill="#00A6B6" d="M1245.819,811.529c-25.248-20.936-60.819-32.548-104.819-35.12v-3.101h-19.007H941.907H925.75h0.102
		H822.018l-73.19,307.806l-72.625-307.806H570.954l-72.633,307.806l-73.19-307.806h-22.942h-81.741H0v79h140v342h114v-342h86.079
		l81.081,342h125.961l76.029-321.99l76.887,321.99h125.953l80.763-342h229.187c9.28,8,17.153,9.078,23.499,14.705
		c11.535,10.215,17.307,26.015,17.307,44.925c0,18.911-5.771,31.375-17.307,41.684s-27.898,12.687-49.082,12.687h-59.854h-14.014
		H939v228h114v-140h68.993c53.903,0,95.267-13.096,124.117-37.033c28.843-23.92,43.108-58.567,43.108-103.011
		C1289.219,870.011,1274.661,835.466,1245.819,811.529z"/>
	<path fill="#00A6B6" d="M84.366,714.556c55.532,7.008,107.487-33.284,145.103-44.665c37.625-11.381,94.048,35.909,158.542,34.159
		c64.486-1.758,98.525-25.403,130.772-23.653c15.661,0.857,45.42,29.777,60.721,39.417c30.188,13.13,85.652,8.456,105.274,0
		c10.446-4.966,45.558-38.56,61.39-39.417c32.599-1.75,67.007,21.896,132.214,23.653c65.197,1.75,122.246-45.54,160.283-34.159
		c38.027,11.381,90.549,51.673,146.689,44.665c16.304-0.874,22.642-19.014,45.283-16.39c13.268,1.544,30.248,13.143,44.236,22.143
		h1.219c-11.484-229-643.338-284.872-643.338-284.872S27.874,491.192,2.514,714.701c12.315-8.928,26.003-15.424,37.067-16.719
		C61.974,695.349,68.243,713.682,84.366,714.556z M751.486,462.549c27.607,5.188,58.173,23.036,58.173,23.036
		s-34.88,5.086-62.487-0.111s-47.822-20.875-47.822-20.875S723.879,457.352,751.486,462.549z M692.627,489.452
		c17.993,16.733,25.669,51.321,25.669,51.321s-34.554-5.678-52.556-22.41c-18.001-16.732-19.151-44.751-19.151-44.751
		S674.617,472.72,692.627,489.452z M574.179,489.452c18.002-16.732,46.029-15.84,46.029-15.84s-1.149,28.019-19.142,44.751
		c-18.002,16.732-52.556,22.41-52.556,22.41S556.186,506.186,574.179,489.452z M512.317,462.549
		c27.599-5.197,52.136,2.05,52.136,2.05s-20.223,15.678-47.83,20.875c-27.599,5.197-62.487,0.111-62.487,0.111
		S484.702,467.737,512.317,462.549z"/>
	<path fill="#00A6B6" d="M1276.23,689.419c0-0.66-0.008-1.132-0.008-1.132h-0.129c0.017,0.343,0.017,0.694,0.033,1.046
		C1276.162,689.358,1276.196,689.394,1276.23,689.419z"/>
</g>
<text transform="matrix(1 0 0 1 112.7188 1361.2383)" fill="#00A6B6" font-family="'HindSiliguri-Light'" font-size="140.515">thewholepye.com</text>
</svg>
